General
Complete name                    : Despicable.Me.2010.BDrip.XviD.HiNDi-DuBBeD.AC3-[SnowDoN-HDDR].avi
Format                           : AVI
Format/Info                      : Audio Video Interleave
File size                        : 703 MiB
Duration                         : 1h 34mn
Overall bit rate                 : 1 036 Kbps
Writing application              : AVI-Mux GUI 1.17.8, Aug 30 2008  12:36:58
Writing library                  : VirtualDub build 32839/release

Video
ID                               : 0
Format                           : MPEG-4 Visual
Format profile                   : Advanced Simple@L5
Format settings, BVOP            : Yes
Format settings, QPel            : No
Format settings, GMC             : No warppoints
Format settings, Matrix          : Default (H.263)
Muxing mode                      : Packed bitstream
Codec ID                         : XVID
Codec ID/Hint                    : XviD
Duration                         : 1h 34mn
Bit rate                         : 899 Kbps
Width                            : 640 pixels
Height                           : 272 pixels
Display aspect ratio             : 2.35:1
Frame rate                       : 23.976 fps
Resolution                       : 8 bits
Colorimetry                      : 4:2:0
Scan type                        : Progressive
Bits/(Pixel*Frame)               : 0.215
Stream size                      : 610 MiB (87%)
Writing library                  : XviD 1.2.1 (UTC 2008-12-04)

Audio
ID                               : 1
Format                           : AC-3
Format/Info                      : Audio Coding 3
Codec ID                         : 2000
Duration                         : 1h 34mn
Bit rate mode                    : Constant
Bit rate                         : 128 Kbps
Channel(s)                       : 6 channels
Channel positions                : Front: L C R, Surround: L R, LFE
Sampling rate                    : 48.0 KHz
Stream size                      : 86.6 MiB (12%)
Alignment                        : Aligned on interleaves
Interleave, duration             : 42 ms (1.00 video frame)
Interleave, preload duration     : 512 ms


 
http://img267.imageshack.us/img267/315/despicableme2010bdripxv.png
 
http://img266.imageshack.us/img266/315/despicableme2010bdripxv.png
 
http://img148.imageshack.us/img148/315/despicableme2010bdripxv.png